<svg height="512" viewBox="0 0 128 128" width="512" xmlns="http://www.w3.org/2000/svg"><path d="m128.112 123.082-54.468-54.47 25.341-10.434a79.282 79.282 0 0 0 25.715-17.047 1.75 1.75 0 0 0 -.735-2.922l-5.845-1.727a23.3 23.3 0 0 0 9.88-19.008 1.751 1.751 0 0 0 -2.479-1.592l-1.41.646a23.22 23.22 0 0 0 3.889-12.847 1.75 1.75 0 0 0 -2.694-1.473l-38.135 24.426a20.364 20.364 0 0 0 -.871-12.423 1.751 1.751 0 0 0 -2.891-.562l-.411.43a20.467 20.467 0 0 0 -1.142-11.045 1.749 1.749 0 0 0 -3.047-.373l-29.709 41.406-10.8-10.8a27.851 27.851 0 0 0 -19.823-8.211 10.878 10.878 0 0 0 -10.872 10.862v.04a16.542 16.542 0 0 0 -7.373 12.702l-.232 3.448a1.749 1.749 0 0 0 3.185 1.11 18.048 18.048 0 0 1 10.915-7.361 10.8 10.8 0 0 0 4.376.928 7.9 7.9 0 0 1 7.886 7.887v8.608a36.291 36.291 0 0 0 36.25 36.25 13.926 13.926 0 0 1 10.95 5.278l16.4 20.6a1.75 1.75 0 0 0 1.369.66h35.545a1.749 1.749 0 0 0 1.237-2.987zm-48.567-115.443a17.035 17.035 0 0 1 -4.436 14.7l-.008.01a1.75 1.75 0 0 0 2.529 2.419l6.249-6.535a16.886 16.886 0 0 1 -1.667 11.584l-28.877 18.5-1.73-1.73zm-75.587 39.515a13.033 13.033 0 0 1 4.376-7.354 10.867 10.867 0 0 0 2.166 3.48 21.461 21.461 0 0 0 -6.542 3.874zm88.216 75.415-15.874-19.941a17.406 17.406 0 0 0 -13.688-6.6 32.788 32.788 0 0 1 -32.75-32.75v-8.606a11.4 11.4 0 0 0 -11.39-11.387 7.376 7.376 0 0 1 -7.324-6.585v-.032a7.367 7.367 0 0 1 7.329-8.114 24.38 24.38 0 0 1 17.343 7.184l12.212 12.212 3.825 3.825a1.752 1.752 0 0 0 2.182.237l70.166-44.943a19.786 19.786 0 0 1 -11.225 14.551 1.75 1.75 0 0 0 1.457 3.183l.015-.007 9.845-4.5a19.79 19.79 0 0 1 -11.317 15.117 1.75 1.75 0 0 0 .233 3.269l6.855 2.026a75.753 75.753 0 0 1 -22.415 14.233l-27.769 11.435a1.75 1.75 0 0 0 -.572 2.855l53.338 53.338z"/></svg>