<?xml version="1.0" standalone="no"?>
<!DOCTYPE svg PUBLIC "-//W3C//DTD SVG 20010904//EN"
 "http://www.w3.org/TR/2001/REC-SVG-20010904/DTD/svg10.dtd">
<svg version="1.0" xmlns="http://www.w3.org/2000/svg"
 width="1280.000000pt" height="806.000000pt" viewBox="0 0 1280.000000 806.000000"
 preserveAspectRatio="xMidYMid meet">
<metadata>
Created by potrace 1.15, written by Peter Selinger 2001-2017
</metadata>
<g transform="translate(0.000000,806.000000) scale(0.100000,-0.100000)" stroke="none">
<path d="M3148 3579 c-704 -68 -1305 -547 -1528 -1217 -64 -193 -81 -291 -87
-512 -9 -326 39 -556 172 -836 226 -471 668 -831 1176 -958 917 -230 1850 283
2144 1179 98 296 116 613 54 919 -180 893 -1021 1513 -1931 1425z m402 -969
c41 -12 113 -41 160 -65 168 -88 288 -211 370 -380 59 -123 80 -200 87 -330
23 -423 -282 -803 -704 -876 -38 -7 -117 -10 -187 -7 -105 4 -135 10 -223 40
-223 76 -383 215 -488 423 -65 130 -87 222 -88 375 -2 220 60 387 207 564 109
129 312 244 488 276 89 15 292 5 378 -20z"/>
<path d="M9880 3580 c-948 -99 -1656 -911 -1617 -1855 42 -994 874 -1763 1862
-1722 383 16 740 147 1040 381 108 86 275 261 357 376 375 530 432 1228 148
1815 -254 525 -756 898 -1330 990 -120 19 -349 26 -460 15z m316 -951 c276
-48 513 -230 629 -483 59 -127 78 -228 72 -386 -3 -102 -10 -152 -27 -205 -53
-166 -156 -319 -282 -420 -78 -62 -221 -135 -313 -161 -90 -25 -293 -30 -388
-10 -332 68 -595 333 -662 665 -23 110 -16 295 14 395 92 308 341 539 651 601
81 16 227 18 306 4z"/>
</g>
</svg>
